{
  "accessors": [
    {
      "bufferView": 1,
      "componentType": 5126,
      "count": 65534,
      "max": [
        21.854219436645508,
        -3.4576900005340576,
        -23.470630645751953
      ],
      "min": [
        18.442020416259766,
        -26.65690040588379,
        -30.19072914123535
      ],
      "type": "VEC3"
    },
    {
      "bufferView": 1,
      "byteOffset": 786408,
      "componentType": 5126,
      "count": 65534,
      "max": [
        0.9999927878379822,
        1.0,
        1.0
      ],
      "min": [
        -1.0,
        -1.0,
        -0.9852133989334106
      ],
      "type": "VEC3"
    },
    {
      "bufferView": 0,
      "componentType": 5125,
      "count": 69852,
      "type": "SCALAR"
    },
    {
      "bufferView": 1,
      "byteOffset": 1572816,
      "componentType": 5126,
      "count": 65532,
      "max": [
        24.806659698486328,
        15.939379692077637,
        28.96133041381836
      ],
      "min": [
        -25.014759063720703,
        -31.772300720214844,
        -37.586238861083984
      ],
      "type": "VEC3"
    },
    {
      "bufferView": 1,
      "byteOffset": 2359200,
      "componentType": 5126,
      "count": 65532,
      "max": [
        1.0,
        1.0,
        1.0
      ],
      "min": [
        -1.0,
        -1.0,
        -0.9999752640724182
      ],
      "type": "VEC3"
    },
    {
      "bufferView": 0,
      "byteOffset": 279408,
      "componentType": 5125,
      "count": 155148,
      "type": "SCALAR"
    },
    {
      "bufferView": 1,
      "byteOffset": 3145584,
      "componentType": 5126,
      "count": 24037,
      "max": [
        24.813060760498047,
        16.078140258789063,
        28.96133041381836
      ],
      "min": [
        -25.01474952697754,
        -33.90285110473633,
        -37.93254089355469
      ],
      "type": "VEC3"
    },
    {
      "bufferView": 1,
      "byteOffset": 3434028,
      "componentType": 5126,
      "count": 24037,
      "max": [
        1.0,
        1.0,
        1.0
      ],
      "min": [
        -1.0,
        -1.0,
        -1.0
      ],
      "type": "VEC3"
    },
    {
      "bufferView": 0,
      "byteOffset": 900000,
      "componentType": 5125,
      "count": 83427,
      "type": "SCALAR"
    }
  ],
  "asset": {
    "extras": {
      "author": "JuanG3D (https://sketchfab.com/juang3d)",
      "license": "CC-BY-4.0 (http://creativecommons.org/licenses/by/4.0/)",
      "source": "https://sketchfab.com/3d-models/grammy-award-4510efedacd94951971f5c2e24d547a9",
      "title": "Grammy Award"
    },
    "generator": "Sketchfab-12.65.0",
    "version": "2.0"
  },
  "bufferViews": [
    {
      "buffer": 0,
      "byteLength": 1233708,
      "name": "floatBufferViews",
      "target": 34963
    },
    {
      "buffer": 0,
      "byteLength": 3722472,
      "byteOffset": 1233708,
      "byteStride": 12,
      "name": "floatBufferViews",
      "target": 34962
    }
  ],
  "buffers": [
    {
      "byteLength": 4956180,
      "uri": "scene.bin"
    }
  ],
  "materials": [
    {
      "doubleSided": true,
      "name": "Gold",
      "pbrMetallicRoughness": {
        "baseColorFactor": [
          0.2573333982093031,
          0.14260264231576913,
          0.0,
          1.0
        ],
        "roughnessFactor": 0.09
      }
    }
  ],
  "meshes": [
    {
      "name": "Grammy3LOGO2_0",
      "primitives": [
        {
          "attributes": {
            "NORMAL": 1,
            "POSITION": 0
          },
          "indices": 2,
          "material": 0,
          "mode": 4
        }
      ]
    },
    {
      "name": "Grammy3LOGO2_0",
      "primitives": [
        {
          "attributes": {
            "NORMAL": 4,
            "POSITION": 3
          },
          "indices": 5,
          "material": 0,
          "mode": 4
        }
      ]
    },
    {
      "name": "Grammy3LOGO2_0",
      "primitives": [
        {
          "attributes": {
            "NORMAL": 7,
            "POSITION": 6
          },
          "indices": 8,
          "material": 0,
          "mode": 4
        }
      ]
    }
  ],
  "nodes": [
    {
      "children": [
        1
      ],
      "matrix": [
        1.0,
        0.0,
        0.0,
        0.0,
        0.0,
        2.220446049250313e-16,
        -1.0,
        0.0,
        0.0,
        1.0,
        2.220446049250313e-16,
        0.0,
        0.0,
        0.0,
        0.0,
        1.0
      ],
      "name": "Sketchfab_model"
    },
    {
      "children": [
        2
      ],
      "name": "Root"
    },
    {
      "children": [
        3,
        4,
        5
      ],
      "name": "Grammy3LOGO2"
    },
    {
      "mesh": 0,
      "name": "Grammy3LOGO2_0"
    },
    {
      "mesh": 1,
      "name": "Grammy3LOGO2_0"
    },
    {
      "mesh": 2,
      "name": "Grammy3LOGO2_0"
    }
  ],
  "scene": 0,
  "scenes": [
    {
      "name": "Sketchfab_Scene",
      "nodes": [
        0
      ]
    }
  ]
}
